<svg width="506" height="306" viewBox="0 0 506 306" fill="none" xmlns="http://www.w3.org/2000/svg">
<path d="M28.81 165.9L23.42 153.71L21 165.9L13 206.06H0L17.79 120H19.21L42.85 166.48L49.85 182.06L56.85 166.48L80.1 120H81.4L99.9 206.06H87L78.33 165.9L75.77 153.71L71.08 165.9L50.23 206.06H49.54L28.81 165.9Z" fill="#4F46E5"/>
<path d="M133.949 207.34C129.251 207.374 124.625 206.181 120.529 203.88C116.418 201.559 113.019 198.16 110.699 194.05C108.162 189.486 106.888 184.329 107.009 179.11C106.89 174.001 107.99 168.938 110.219 164.34C112.261 160.233 115.463 156.815 119.429 154.51C123.725 152.088 128.599 150.879 133.529 151.01C136.53 150.987 139.508 151.544 142.299 152.65C144.808 153.596 147.146 154.948 149.219 156.65C150.831 157.91 152.117 159.539 152.969 161.4L153.199 152.4H165.259V206.15H153.279L153.029 196.68C151.394 199.815 148.873 202.399 145.779 204.11C142.216 206.273 138.117 207.392 133.949 207.34ZM136.049 196.8C138.142 196.847 140.223 196.46 142.159 195.663C144.095 194.867 145.845 193.677 147.299 192.17C150.345 189.09 151.869 185.056 151.869 180.07V179.24C151.917 176.112 151.192 173.02 149.759 170.24C148.45 167.685 146.46 165.543 144.009 164.05C141.608 162.561 138.833 161.787 136.009 161.82C131.029 161.82 127.169 163.436 124.429 166.67C121.689 169.903 120.322 174.1 120.329 179.26C120.329 184.5 121.662 188.736 124.329 191.97C126.995 195.203 130.902 196.806 136.049 196.78V196.8Z" fill="#4F46E5"/>
<path d="M182 152.418H194.69V162.968C195.819 159.54 197.938 156.523 200.78 154.298C203.52 152.142 206.914 150.989 210.4 151.028C212.145 150.914 213.896 151.149 215.55 151.718L213.8 164.488C213.09 164.018 211.56 163.778 209.21 163.778C205.574 163.781 202.046 165.022 199.21 167.298C196.21 169.631 194.71 173.375 194.71 178.528V206.168H182V152.418Z" fill="#4F46E5"/>
<path d="M37.9 241.75H34.82L32.57 238.12L31.95 236.89L30.51 238.45V241.75H28V224H30.48V233.73V235.62L34.71 230.62H37.92L33.75 235.27L37.9 241.75Z" fill="white"/>
<path d="M44.9418 241.61C43.7856 241.655 42.6396 241.378 41.6318 240.81C40.7637 240.334 40.0649 239.6 39.6318 238.71C39.2061 237.814 38.9907 236.832 39.0018 235.84C38.9761 234.758 39.2274 233.687 39.7318 232.73C40.2009 231.891 40.8931 231.199 41.7318 230.73C42.6556 230.243 43.6878 229.999 44.7318 230.02C45.4292 229.956 46.1321 230.047 46.7906 230.285C47.4491 230.524 48.047 230.904 48.5418 231.4C49.4433 232.53 49.8892 233.957 49.7918 235.4C49.7892 235.844 49.7624 236.288 49.7118 236.73H41.7118C41.7951 237.538 42.1472 238.295 42.7118 238.88C43.3455 239.341 44.1197 239.567 44.9018 239.52C45.5472 239.536 46.192 239.472 46.8218 239.33C47.2997 239.209 47.7601 239.028 48.1918 238.79L48.9918 240.65C48.4776 240.955 47.9218 241.184 47.3418 241.33C46.5577 241.529 45.7506 241.623 44.9418 241.61ZM47.2718 234.92C47.3163 234.541 47.2805 234.158 47.1667 233.794C47.053 233.431 46.8639 233.095 46.6118 232.81C46.0735 232.367 45.3872 232.146 44.6918 232.19C43.0118 232.19 42.0318 233.1 41.7718 234.92H47.2718Z" fill="white"/>
<path d="M54 232.19H52V230.06H54V225.54L56.6 225V230.1H59.16V232.23H56.6V241.23H54V232.19Z" fill="white"/>
<path d="M61.4406 230.46H64.1306V241.55H61.4406V230.46ZM62.7706 228.4C62.5364 228.405 62.3037 228.363 62.0858 228.277C61.8678 228.191 61.669 228.063 61.5006 227.9C61.3365 227.737 61.2076 227.542 61.1216 227.327C61.0356 227.112 60.9944 226.882 61.0006 226.65C60.9989 226.431 61.0424 226.214 61.1285 226.013C61.2145 225.812 61.3412 225.63 61.5006 225.48C61.8483 225.166 62.3019 224.995 62.7706 225C63.2277 224.992 63.6696 225.165 64.0006 225.48C64.16 225.63 64.2867 225.812 64.3727 226.013C64.4588 226.214 64.5023 226.431 64.5006 226.65C64.5068 226.882 64.4656 227.112 64.3796 227.327C64.2936 227.542 64.1647 227.737 64.0006 227.9C63.8418 228.065 63.6503 228.194 63.4385 228.28C63.2266 228.366 62.9992 228.407 62.7706 228.4Z" fill="white"/>
<path d="M68 230.318H70.56V232.318C70.8713 231.644 71.3715 231.074 72 230.678C72.6924 230.227 73.5039 229.994 74.33 230.008C75.2607 229.951 76.1847 230.2 76.96 230.718C77.5899 231.222 78.0249 231.929 78.19 232.718C78.4357 233.81 78.5465 234.929 78.52 236.048V241.388H75.91V236.118C75.9596 235.101 75.8206 234.084 75.5 233.118C75.355 232.807 75.1155 232.55 74.8156 232.383C74.5158 232.216 74.1708 232.148 73.83 232.188C73.303 232.198 72.7898 232.358 72.35 232.648C71.8291 232.963 71.3985 233.408 71.1 233.938C70.7527 234.546 70.5797 235.238 70.6 235.938V241.438H68V230.318Z" fill="white"/>
<path d="M87.0616 247.151C86.24 247.148 85.4227 247.033 84.6316 246.811C84.0463 246.67 83.4792 246.462 82.9416 246.191L83.5016 243.771C84.5368 244.442 85.7481 244.79 86.9816 244.771C87.8486 244.803 88.7031 244.557 89.4216 244.071C89.792 243.727 90.0758 243.301 90.2496 242.826C90.4234 242.352 90.4823 241.843 90.4216 241.341V239.341C90.0337 240.015 89.4612 240.563 88.7716 240.921C88.0077 241.346 87.1457 241.563 86.2716 241.551C85.3371 241.559 84.4178 241.314 83.6116 240.841C82.8037 240.359 82.1405 239.668 81.6916 238.841C81.2146 237.875 80.9779 236.808 81.0016 235.731C80.9815 234.692 81.2113 233.663 81.6716 232.731C82.0977 231.898 82.7535 231.204 83.5616 230.731C84.4384 230.233 85.4334 229.981 86.4416 230.001C87.0566 229.998 87.6658 230.12 88.2316 230.361C88.7546 230.556 89.2413 230.836 89.6716 231.191C90.0203 231.447 90.2932 231.793 90.4616 232.191L90.5216 230.331H93.0016V241.331C93.1078 242.914 92.5829 244.474 91.5416 245.671C90.9362 246.212 90.2261 246.622 89.4554 246.877C88.6848 247.131 87.8699 247.225 87.0616 247.151ZM87.0016 239.401C87.4307 239.412 87.8574 239.335 88.255 239.173C88.6525 239.011 89.0123 238.769 89.3116 238.461C89.6427 238.133 89.9025 237.739 90.0745 237.305C90.2466 236.872 90.3273 236.407 90.3116 235.941V235.771C90.3263 235.127 90.1748 234.49 89.8716 233.921C89.5989 233.4 89.1914 232.961 88.6916 232.651C88.1804 232.35 87.595 232.197 87.0016 232.211C86.5533 232.184 86.1048 232.26 85.6905 232.434C85.2762 232.607 84.9072 232.873 84.6116 233.211C84.0311 233.942 83.7329 234.858 83.7716 235.791C83.7306 236.74 84.0284 237.672 84.6116 238.421C84.9119 238.752 85.2822 239.012 85.6958 239.182C86.1093 239.351 86.5554 239.426 87.0016 239.401Z" fill="white"/>
<path d="M108.75 224L117.29 241.77H114.19L112.67 238.29H104.52L103 241.77H100L108.5 224H108.75ZM107.54 231.56L105.63 235.85H111.63L109.69 231.62L108.69 229.18H108.62L107.54 231.56Z" fill="white"/>
<path d="M124.102 247.131C123.28 247.128 122.463 247.013 121.672 246.791C121.074 246.658 120.493 246.457 119.942 246.191L120.502 243.771C121.537 244.442 122.748 244.79 123.982 244.771C124.849 244.803 125.703 244.557 126.422 244.071C126.794 243.729 127.079 243.303 127.253 242.828C127.427 242.353 127.485 241.843 127.422 241.341V239.341C127.034 240.015 126.461 240.563 125.772 240.921C125.008 241.346 124.146 241.563 123.272 241.551C122.337 241.559 121.418 241.314 120.612 240.841C119.804 240.359 119.14 239.668 118.692 238.841C118.215 237.875 117.978 236.808 118.002 235.731C117.982 234.692 118.211 233.663 118.672 232.731C119.098 231.895 119.758 231.2 120.572 230.731C121.444 230.232 122.436 229.98 123.442 230.001C124.057 229.997 124.666 230.119 125.232 230.361C125.755 230.556 126.241 230.836 126.672 231.191C127.02 231.447 127.293 231.793 127.462 232.191L127.522 230.331H129.982V241.331C130.088 242.914 129.563 244.474 128.522 245.671C127.922 246.202 127.222 246.605 126.462 246.856C125.702 247.107 124.899 247.2 124.102 247.131ZM124.042 239.381C124.471 239.392 124.897 239.315 125.295 239.153C125.693 238.991 126.052 238.749 126.352 238.441C126.683 238.113 126.942 237.719 127.115 237.286C127.287 236.852 127.367 236.388 127.352 235.921V235.751C127.365 235.108 127.217 234.473 126.922 233.901C126.642 233.382 126.232 232.944 125.732 232.631C125.234 232.329 124.663 232.17 124.082 232.171C123.633 232.144 123.185 232.22 122.771 232.394C122.356 232.567 121.987 232.833 121.692 233.171C121.111 233.903 120.813 234.818 120.852 235.751C120.811 236.7 121.108 237.632 121.692 238.381C121.986 238.711 122.349 238.971 122.755 239.144C123.161 239.317 123.6 239.398 124.042 239.381Z" fill="white"/>
<path d="M138.932 241.605C137.776 241.65 136.63 241.373 135.622 240.805C134.754 240.329 134.055 239.595 133.622 238.705C133.2 237.808 132.988 236.826 133.002 235.835C132.974 234.754 133.221 233.683 133.722 232.725C134.203 231.878 134.914 231.185 135.772 230.725C136.681 230.245 137.695 230.001 138.722 230.015C139.421 229.96 140.123 230.058 140.78 230.304C141.436 230.549 142.031 230.935 142.522 231.435C143.419 232.568 143.865 233.993 143.772 235.435C143.766 235.879 143.736 236.323 143.682 236.765H135.682C135.775 237.581 136.146 238.34 136.732 238.915C137.361 239.377 138.133 239.604 138.912 239.555C139.558 239.571 140.202 239.507 140.832 239.365C141.313 239.243 141.776 239.061 142.212 238.825L143.002 240.685C142.488 240.99 141.932 241.219 141.352 241.365C140.56 241.552 139.746 241.633 138.932 241.605ZM141.262 234.915C141.309 234.536 141.274 234.152 141.16 233.789C141.046 233.425 140.856 233.089 140.602 232.805C140.064 232.362 139.378 232.141 138.682 232.185C137.002 232.185 136.022 233.095 135.762 234.915H141.262Z" fill="white"/>
<path d="M146.02 230.318H148.59V232.318C148.9 231.646 149.397 231.077 150.02 230.678C150.716 230.227 151.531 229.994 152.36 230.008C153.288 229.951 154.208 230.2 154.98 230.718C155.61 231.222 156.045 231.929 156.21 232.718C156.456 233.81 156.566 234.929 156.54 236.048V241.388H153.92V236.118C153.972 235.101 153.83 234.082 153.5 233.118C153.358 232.807 153.121 232.549 152.822 232.382C152.524 232.214 152.18 232.147 151.84 232.188C151.313 232.198 150.8 232.358 150.36 232.648C149.837 232.96 149.405 233.405 149.11 233.938C148.758 234.544 148.584 235.238 148.61 235.938V241.438H146L146.02 230.318Z" fill="white"/>
<path d="M164.85 241.652C163.807 241.669 162.775 241.425 161.85 240.942C160.981 240.459 160.261 239.746 159.77 238.882C159.275 237.931 159.011 236.876 159 235.804C158.99 234.732 159.233 233.672 159.71 232.712C160.157 231.856 160.855 231.158 161.71 230.712C162.633 230.222 163.666 229.978 164.71 230.002C165.45 229.991 166.187 230.102 166.89 230.332C167.437 230.494 167.942 230.774 168.37 231.152L167.25 233.252C166.954 232.939 166.597 232.69 166.202 232.518C165.807 232.346 165.381 232.255 164.95 232.252C164.513 232.222 164.075 232.291 163.668 232.454C163.261 232.616 162.897 232.869 162.6 233.192C162.033 233.897 161.744 234.787 161.79 235.692C161.726 236.691 162.02 237.68 162.62 238.482C162.906 238.816 163.264 239.081 163.669 239.254C164.073 239.427 164.511 239.505 164.95 239.482C165.445 239.483 165.936 239.412 166.41 239.272C166.801 239.156 167.175 238.988 167.52 238.772L168.45 240.602C167.999 240.922 167.499 241.168 166.97 241.332C166.287 241.556 165.57 241.664 164.85 241.652Z" fill="white"/>
<path d="M174.58 241.42L170 230H172.93L175.31 237L175.85 238.73L176.37 237L178.85 230H181.7L174.89 247.17H172.2L174.58 241.42Z" fill="white"/>
<mask id="mask0_0_1" style="mask-type:luminance" maskUnits="userSpaceOnUse" x="230" y="30" width="276" height="276">
<path d="M505.48 30H230V305.48H505.48V30Z" fill="white"/>
</mask>
<g mask="url(#mask0_0_1)">
<mask id="mask1_0_1" style="mask-type:luminance" maskUnits="userSpaceOnUse" x="230" y="30" width="276" height="276">
<path d="M367.75 30C340.506 30 313.873 38.0789 291.22 53.2151C268.567 68.3512 250.912 89.8648 240.486 115.035C230.06 140.206 227.332 167.903 232.647 194.624C237.962 221.345 251.081 245.889 270.346 265.154C289.611 284.419 314.155 297.538 340.876 302.853C367.597 308.168 395.294 305.44 420.465 295.014C445.635 284.588 467.149 266.933 482.285 244.28C497.421 221.627 505.5 194.994 505.5 167.75C505.5 149.66 501.937 131.748 495.014 115.035C488.092 98.3228 477.945 83.1373 465.154 70.346C452.363 57.5548 437.177 47.4082 420.465 40.4856C403.752 33.563 385.84 30 367.75 30Z" fill="white"/>
</mask>
<g mask="url(#mask1_0_1)">
<path d="M230 30H505.49V305.49H230V30Z" fill="black"/>
</g>
</g>
<mask id="mask2_0_1" style="mask-type:luminance" maskUnits="userSpaceOnUse" x="216" y="0" width="289" height="79">
<path d="M504.94 0H216V79H504.94V0Z" fill="white"/>
</mask>
<g mask="url(#mask2_0_1)">
<path d="M491.604 30.4716C491.214 27.1916 490.854 23.8716 490.184 20.6316C489.895 19.1619 489.47 17.7224 488.914 16.3316C488.384 15.0116 487.754 13.2516 486.234 12.8216C484.714 12.3916 483.344 13.6016 482.174 14.5116C481.004 15.4216 479.704 16.4616 478.494 17.5116C476.114 19.5116 473.801 21.575 471.554 23.7016C466.442 28.5994 461.706 33.8742 457.384 39.4816C457.19 39.8164 457.136 40.214 457.233 40.5884C457.331 40.9628 457.572 41.2838 457.904 41.4816C458.181 41.6434 458.503 41.7077 458.821 41.6641C459.138 41.6206 459.431 41.4718 459.654 41.2416C459.785 41.3713 459.942 41.472 460.114 41.5375C460.286 41.6029 460.47 41.6316 460.654 41.6216C462.492 41.5215 464.335 41.5717 466.164 41.7716C466.164 42.9316 466.074 44.0816 466.034 45.2416C466.039 45.4993 466.111 45.7512 466.242 45.9728C466.374 46.1945 466.56 46.3782 466.784 46.5062C467.008 46.6341 467.261 46.7019 467.518 46.7029C467.776 46.7038 468.03 46.6379 468.254 46.5116C468.672 46.3463 469.119 46.267 469.569 46.2787C470.018 46.2903 470.461 46.3925 470.87 46.5793C471.279 46.7661 471.646 47.0335 471.949 47.3655C472.252 47.6975 472.485 48.0874 472.634 48.5116C473.024 49.6616 472.384 50.9516 472.124 52.0716C471.905 52.7571 471.829 53.4807 471.903 54.1967C471.977 54.9127 472.199 55.6056 472.554 56.2316C472.673 56.4211 472.833 56.5817 473.022 56.7019C473.21 56.8221 473.423 56.8988 473.645 56.9266C473.867 56.9544 474.093 56.9324 474.305 56.8624C474.518 56.7923 474.712 56.676 474.874 56.5216C476.274 55.3516 478.564 55.8716 479.744 57.1016C481.334 58.7616 481.254 61.3216 480.514 63.3316C479.964 64.8316 481.964 65.6416 482.974 64.7716C492.774 56.2416 493.024 42.3016 491.604 30.4716ZM481.854 21.7816C481.904 23.0816 481.944 24.3816 481.964 25.6916C481.914 25.6659 481.86 25.649 481.804 25.6416C481.815 25.4137 481.77 25.1865 481.675 24.9794C481.579 24.7722 481.435 24.5912 481.254 24.4516C481.147 24.3782 481.033 24.3147 480.914 24.2616C480.774 23.895 480.614 23.525 480.434 23.1516C480.904 22.6816 481.374 22.2216 481.854 21.7816ZM479.094 32.5916C478.902 32.5736 478.708 32.5964 478.526 32.6584C478.343 32.7205 478.176 32.8204 478.034 32.9516C478.039 32.8817 478.039 32.8116 478.034 32.7416C478.272 32.6861 478.485 32.5565 478.644 32.3716C478.784 32.2116 478.924 32.0416 479.054 31.8716L479.094 32.5916ZM482.044 30.6816V32.1216C482.044 31.9116 482.044 31.7216 482.044 31.5216C482.044 30.5216 481.964 29.5216 481.864 28.5216H481.924H482.034L482.044 30.6816ZM474.794 38.3916C474.308 36.2847 474.182 34.1105 474.424 31.9616C474.654 32.4951 474.838 33.0471 474.974 33.6116C474.817 35.1931 474.753 36.7826 474.784 38.3716L474.794 38.3916ZM485.494 36.4616C485.529 38.215 485.449 39.9688 485.254 41.7116C485.184 40.7116 485.064 39.7116 484.904 38.6516V38.4016C485.064 36.3316 484.974 34.2116 484.974 32.1416C484.974 31.9416 484.974 31.7316 484.974 31.5216L485.354 32.9816C485.421 34.1283 485.464 35.2816 485.484 36.4416L485.494 36.4616ZM475.814 28.4616L475.474 27.9816L476.054 27.4116L475.814 28.4616ZM471.384 33.3016C471.162 33.0494 470.914 32.8214 470.644 32.6216L471.474 31.8116C471.424 32.2416 471.384 32.7816 471.374 33.2316L471.384 33.3016ZM469.114 40.1716C469.052 39.9357 468.932 39.7191 468.764 39.5416L469.564 39.7616C469.405 39.8675 469.252 39.981 469.104 40.1016L469.114 40.1716ZM482.114 55.3116L481.964 55.1316L482.114 55.0116V55.3116ZM478.294 52.9216C478.346 53.01 478.41 53.0907 478.484 53.1616L478.024 53.0716C478.074 52.9516 478.164 52.9116 478.254 52.8516L478.294 52.9216ZM483.784 58.6916C483.994 58.7717 484.22 58.8025 484.444 58.7816L483.914 59.5016C483.854 59.1616 483.794 58.8916 483.744 58.6216L483.784 58.6916ZM485.404 15.7816C485.383 15.7667 485.364 15.7474 485.35 15.725C485.337 15.7027 485.328 15.6777 485.324 15.6516C485.341 15.7003 485.368 15.7447 485.404 15.7816L485.454 15.7216C485.644 15.4616 485.534 15.8616 485.404 15.7916C485.434 15.8292 485.461 15.8694 485.484 15.9116C485.615 16.2584 485.775 16.593 485.964 16.9116C486.503 18.158 486.918 19.4542 487.204 20.7816C487.864 23.6616 488.204 26.6316 488.544 29.5616C488.874 32.1516 489.144 34.7816 489.284 37.4116C489.034 35.8416 488.704 34.2916 488.284 32.7416C488.078 29.1649 487.671 25.6026 487.064 22.0716C486.913 20.7652 486.666 19.4716 486.324 18.2016C486.245 17.9642 486.115 17.7466 485.944 17.5638C485.773 17.3809 485.565 17.2372 485.333 17.1422C485.102 17.0473 484.852 17.0035 484.602 17.0137C484.352 17.024 484.107 17.0881 483.884 17.2016C483.79 17.1398 483.69 17.0894 483.584 17.0516C483.714 16.9516 483.834 16.8416 483.964 16.7516C484.471 16.4703 484.953 16.1457 485.404 15.7816ZM266.404 6.52164C256.608 3.39244 246.503 1.3272 236.264 0.361639C232.278 -0.095887 228.255 -0.119358 224.264 0.291639C224.141 0.303885 224.021 0.330741 223.904 0.371639C223.732 0.404078 223.569 0.470282 223.423 0.566412C223.277 0.662542 223.152 0.786684 223.054 0.931639L222.954 1.10164C222.925 1.16262 222.901 1.22624 222.884 1.29164C222.877 1.31105 222.877 1.33223 222.884 1.35164C219.643 12.3408 217.726 23.6778 217.174 35.1216C216.892 40.7868 216.953 46.4637 217.354 52.1216C217.533 56.6753 218.303 61.1863 219.644 65.5416C221.104 69.7816 223.114 74.5416 226.644 77.5416C228.074 78.7616 230.164 76.7016 228.724 75.4616C225.854 73.0116 224.144 69.1916 222.864 65.7316C222.164 63.8562 221.606 61.9308 221.194 59.9716C220.791 57.7067 220.527 55.419 220.404 53.1216C219.061 36.2849 220.782 19.3441 225.484 3.12164C228.504 2.89161 231.538 2.91168 234.554 3.18164C239.061 3.5157 243.545 4.11003 247.984 4.96164C258.397 6.79243 268.558 9.84693 278.254 14.0616C283.367 16.2397 288.199 19.0264 292.644 22.3616C292.928 22.6267 293.301 22.7741 293.689 22.7741C294.077 22.7741 294.451 22.6267 294.734 22.3616C295.008 22.0846 295.161 21.711 295.161 21.3216C295.161 20.9323 295.008 20.5586 294.734 20.2816C286.354 13.7816 276.384 9.64164 266.394 6.50164L266.404 6.52164ZM252.174 31.2616C248.382 27.2649 244.268 23.5858 239.874 20.2616C237.874 18.7516 235.874 17.2616 233.814 15.9616C233.577 15.8187 233.303 15.7473 233.027 15.7558C232.75 15.7644 232.481 15.8525 232.253 16.0098C232.025 16.167 231.848 16.3867 231.741 16.6424C231.635 16.8982 231.605 17.1791 231.654 17.4516C231.523 17.6215 231.433 17.8204 231.394 18.0316C228.664 31.0316 225.994 45.0316 232.254 57.4616C233.759 60.4819 235.814 63.1949 238.314 65.4616C238.475 65.6177 238.669 65.7356 238.882 65.8067C239.095 65.8778 239.321 65.9003 239.544 65.8724C239.766 65.8446 239.98 65.7672 240.168 65.6459C240.357 65.5246 240.516 65.3626 240.634 65.1716C241.124 64.1697 241.265 63.0328 241.034 61.9416C240.914 61.1616 240.554 60.1916 240.944 59.4416C241.944 57.5716 244.844 58.3516 246.414 58.7116C246.632 58.7692 246.86 58.7765 247.082 58.733C247.303 58.6896 247.511 58.5965 247.691 58.4607C247.872 58.3249 248.018 58.1501 248.121 57.9493C248.224 57.7485 248.279 57.5271 248.284 57.3016C248.284 55.3016 247.434 53.3616 247.504 51.3616C247.474 50.7118 247.7 50.0762 248.134 49.5916C248.424 49.3316 249.074 49.0816 249.404 49.3916C250.404 50.3016 252.404 49.3916 251.874 47.9616C251.706 47.3683 251.763 46.7338 252.034 46.18C252.306 45.6263 252.772 45.1923 253.344 44.9616C254.954 44.1916 256.914 44.6616 258.534 45.1516C258.77 45.2317 259.023 45.2442 259.265 45.1876C259.507 45.1311 259.729 45.0077 259.904 44.8316C260.136 44.6706 260.306 44.4351 260.386 44.1641C260.466 43.8931 260.451 43.603 260.344 43.3416C258.774 38.7116 255.474 34.7816 252.174 31.2616ZM238.004 58.9616L237.934 58.8716L237.854 58.7816L238.094 58.7116L238.004 58.9616ZM236.644 38.3316C236.303 38.2778 235.954 38.3301 235.644 38.4816C235.644 37.6216 235.554 36.7516 235.514 35.8916C235.904 36.7016 236.284 37.5116 236.644 38.3316ZM237.994 27.5216L238.094 27.4516C238.057 27.4699 238.024 27.4934 237.994 27.5216ZM240.754 52.7816C240.963 52.8406 241.185 52.8406 241.394 52.7816C241.554 52.9916 241.714 53.1816 241.884 53.3916L240.694 53.5116L240.754 52.7816ZM250.854 38.9116C250.154 38.3216 249.474 37.7316 248.794 37.1316C248.742 36.8483 248.606 36.587 248.404 36.3816C248.158 36.1553 247.846 36.0119 247.514 35.9716L247.434 35.8916C247.544 35.7708 247.626 35.6274 247.674 35.4716C248.354 36.2616 249.034 37.0516 249.674 37.8616C249.847 38.0433 250.065 38.1747 250.306 38.2416C250.548 38.3086 250.803 38.3086 251.044 38.2416C251.201 38.3806 251.352 38.5275 251.494 38.6816L251.604 38.7816C251.352 38.8107 251.101 38.8541 250.854 38.9116ZM239.854 26.7816C239.849 26.8482 239.849 26.9151 239.854 26.9816C239.659 26.8808 239.443 26.8282 239.224 26.8282C239.005 26.8282 238.789 26.8808 238.594 26.9816C238.729 26.8164 238.823 26.6215 238.868 26.4129C238.914 26.2043 238.909 25.988 238.854 25.7816L239.854 26.7816ZM237.004 24.6416C236.931 24.3596 236.88 24.0719 236.854 23.7816C237.084 24.0116 237.334 24.2316 237.564 24.4716C237.352 24.471 237.142 24.5225 236.954 24.6216L237.004 24.6416ZM233.294 23.7416C233.394 24.2016 233.494 24.6616 233.604 25.1216C233.335 25.2542 233.099 25.4456 232.914 25.6816C232.994 25.0116 233.114 24.3616 233.244 23.7216L233.294 23.7416ZM232.294 29.5616C232.294 29.6216 232.294 29.6716 232.294 29.7316L232.234 29.9116C232.154 29.7816 232.174 29.6616 232.194 29.5416L232.294 29.5616ZM245.234 55.2616C245.229 55.3482 245.229 55.435 245.234 55.5216H245.044C245.08 55.4303 245.11 55.3368 245.134 55.2416L245.234 55.2616ZM254.694 41.6616C254.985 41.4797 255.196 41.1936 255.284 40.8616C255.358 40.5506 255.388 40.2309 255.374 39.9116C255.754 40.5016 256.114 41.1016 256.444 41.7216C255.864 41.6417 255.279 41.6116 254.694 41.6316V41.6616ZM502.584 20.2716C501.606 13.881 500.2 7.56344 498.374 1.36164L498.284 1.13164L498.214 1.02164V0.951639C498.02 0.672899 497.727 0.479507 497.394 0.411639C497.271 0.369739 497.144 0.342877 497.014 0.331639C493.533 -0.051301 490.022 -0.0848013 486.534 0.231639C481.79 0.600462 477.069 1.23143 472.394 2.12164C461.69 4.04377 451.251 7.2259 441.294 11.6016C436.052 13.894 431.1 16.801 426.544 20.2616C426.407 20.3982 426.299 20.5603 426.225 20.7387C426.151 20.9172 426.113 21.1085 426.113 21.3016C426.113 21.4948 426.151 21.6861 426.225 21.8645C426.299 22.043 426.407 22.2051 426.544 22.3416C426.825 22.6082 427.197 22.7569 427.584 22.7569C427.971 22.7569 428.343 22.6082 428.624 22.3416C436.624 16.1316 446.374 12.2016 455.954 9.22164C465.444 6.20288 475.23 4.21147 485.144 3.28164C488.682 2.90175 492.246 2.8415 495.794 3.10164C500.29 18.6806 502.057 34.9203 501.014 51.1016C500.888 55.5666 500.185 59.9966 498.924 64.2816C497.624 68.2816 495.794 72.7416 492.544 75.5116C491.104 76.7516 493.194 78.8116 494.634 77.5916C497.754 74.9216 499.634 70.8116 501.064 67.0616C502.555 62.9256 503.454 58.5994 503.734 54.2116C504.691 42.8925 504.305 31.5 502.584 20.2716ZM446.584 18.1016C446.396 18.046 446.198 18.0306 446.003 18.0564C445.808 18.0823 445.621 18.1488 445.454 18.2516L441.694 20.8816C441.37 21.0849 441.129 21.3968 441.014 21.7616C440.912 22.1433 440.966 22.5497 441.164 22.8916C441.357 23.2248 441.673 23.469 442.044 23.5716C442.429 23.6739 442.839 23.62 443.184 23.4216L446.944 20.7816C447.268 20.5784 447.509 20.2664 447.624 19.9016C447.722 19.5154 447.665 19.106 447.464 18.7616C447.266 18.4375 446.951 18.2013 446.584 18.1016Z" fill="black"/>
</g>
<path d="M299.79 164.9L283.88 194.75H281.65L259 141H272.59L284.17 172.27L299.52 141H300L315.46 172L327.06 141H340.4L317.92 194.75H315.69L299.79 164.9Z" fill="white"/>
<path d="M374.508 196.324C368.108 196.324 362.774 195.057 358.508 192.524C354.386 190.167 351.074 186.618 349.008 182.344C346.967 177.962 345.942 173.177 346.008 168.344C345.891 163.121 347.117 157.957 349.568 153.344C351.844 149.163 355.283 145.732 359.468 143.464C363.867 141.116 368.791 139.926 373.778 140.004C382.038 140.004 388.178 142.29 392.198 146.864C396.218 151.437 398.218 157.854 398.198 166.114C398.193 168.305 398.073 170.495 397.838 172.674H359.158C360.018 177.447 361.718 180.884 364.258 182.984C366.798 185.084 370.334 186.134 374.868 186.134C377.978 186.204 381.085 185.888 384.118 185.194C386.431 184.607 388.667 183.748 390.778 182.634L394.658 191.634C392.163 193.109 389.469 194.218 386.658 194.924C382.688 195.929 378.602 196.4 374.508 196.324ZM385.868 163.864C385.948 159.03 384.891 155.62 382.698 153.634C380.504 151.647 377.388 150.647 373.348 150.634C365.141 150.634 360.411 155.044 359.158 163.864H385.868Z" fill="white"/>
<path d="M443.38 196.23C439.23 196.289 435.147 195.176 431.6 193.02C428.53 191.29 426.028 188.705 424.4 185.58L424.17 195.06H412V109H424.4V142.12L423.81 151.27C425.143 148.143 427.74 145.477 431.6 143.27C435.425 141.057 439.771 139.904 444.19 139.93C449.055 139.811 453.857 141.047 458.06 143.5C461.995 145.86 465.154 149.319 467.15 153.45C469.341 158.077 470.423 163.152 470.31 168.27C470.434 173.466 469.164 178.601 466.63 183.14C464.305 187.219 460.9 190.579 456.79 192.85C452.684 195.108 448.066 196.272 443.38 196.23ZM441.27 185.68C446.343 185.68 450.247 184.063 452.98 180.83C455.713 177.597 457.08 173.403 457.08 168.25C457.08 163.01 455.747 158.773 453.08 155.54C450.413 152.307 446.49 150.687 441.31 150.68C439.217 150.635 437.137 151.023 435.201 151.82C433.265 152.616 431.515 153.805 430.06 155.31C427.02 158.39 425.5 162.423 425.5 167.41V168.25C425.452 171.385 426.198 174.481 427.67 177.25C429.003 179.783 430.975 181.924 433.39 183.46C435.756 184.925 438.487 185.695 441.27 185.68Z" fill="white"/>
</svg>
